<svg xmlns="http://www.w3.org/2000/svg" xmlns:xlink="http://www.w3.org/1999/xlink" width="500" zoomAndPan="magnify" viewBox="0 0 375 374.999991" height="500" preserveAspectRatio="xMidYMid meet" version="1.0"><defs><clipPath id="a6ac69ffb8"><path d="M 33 0 L 346.875 0 L 346.875 375 L 33 375 Z M 33 0 " clip-rule="nonzero"/></clipPath></defs><g clip-path="url(#a6ac69ffb8)"><path fill="#000000" d="M 263.921875 375 L 137.585938 375 C 132.53125 346.691406 115.457031 335.835938 86.375 342.4375 C 66.96875 345.808594 57.472656 343.09375 57.882812 334.300781 C 57.785156 320.652344 55.445312 315.6875 51.925781 313.054688 C 44.136719 307.046875 52.816406 299.324219 61.738281 294.480469 C 54.234375 293.886719 44.601562 287.851562 46.675781 283.023438 C 49.996094 271.660156 48.425781 267.085938 43.296875 264.429688 C 33.316406 259.546875 31.28125 253.328125 37.191406 245.777344 C 43.644531 238.921875 49.085938 231.339844 53.515625 223.039062 C 55.328125 219.660156 56.597656 216.089844 57.320312 212.328125 C 58.046875 208.5625 58.191406 204.777344 57.761719 200.96875 C 57.394531 197.300781 57.207031 193.578125 57.203125 189.808594 C 57.203125 188 57.246094 186.191406 57.335938 184.386719 C 57.425781 182.578125 57.558594 180.773438 57.734375 178.972656 C 57.910156 177.171875 58.132812 175.375 58.398438 173.585938 C 58.664062 171.796875 58.972656 170.015625 59.328125 168.238281 C 59.679688 166.464844 60.074219 164.699219 60.515625 162.945312 C 60.953125 161.1875 61.4375 159.445312 61.960938 157.714844 C 62.488281 155.980469 63.054688 154.265625 63.664062 152.558594 C 64.273438 150.855469 64.925781 149.167969 65.617188 147.496094 C 66.3125 145.824219 67.042969 144.171875 67.816406 142.535156 C 68.589844 140.898438 69.40625 139.28125 70.257812 137.6875 C 71.109375 136.089844 72.003906 134.515625 72.933594 132.964844 C 73.863281 131.414062 74.832031 129.882812 75.835938 128.378906 C 76.839844 126.875 77.882812 125.394531 78.960938 123.941406 C 80.039062 122.488281 81.152344 121.0625 82.300781 119.664062 C 83.449219 118.265625 84.628906 116.894531 85.84375 115.554688 C 87.058594 114.214844 88.308594 112.902344 89.585938 111.625 C 90.867188 110.34375 92.175781 109.097656 93.515625 107.882812 C 94.859375 106.667969 96.226562 105.484375 97.625 104.335938 C 99.027344 103.1875 100.453125 102.074219 101.90625 101 C 103.359375 99.921875 104.835938 98.878906 106.34375 97.875 C 107.847656 96.867188 109.375 95.898438 110.925781 94.96875 C 112.480469 94.039062 114.054688 93.148438 115.648438 92.292969 C 117.246094 91.441406 118.863281 90.628906 120.496094 89.855469 C 122.132812 89.082031 123.789062 88.347656 125.460938 87.65625 C 127.132812 86.960938 128.820312 86.3125 130.523438 85.703125 C 132.226562 85.09375 133.945312 84.523438 135.675781 84 C 137.40625 83.472656 139.152344 82.992188 140.90625 82.550781 C 142.660156 82.113281 144.425781 81.714844 146.203125 81.363281 C 147.976562 81.011719 149.757812 80.699219 151.550781 80.433594 C 153.339844 80.167969 155.132812 79.949219 156.933594 79.769531 C 158.734375 79.59375 160.539062 79.460938 162.347656 79.371094 C 164.15625 79.28125 165.964844 79.238281 167.773438 79.238281 C 169.746094 79.238281 171.703125 79.289062 173.648438 79.390625 C 173.394531 81.707031 173.265625 84.027344 173.265625 86.359375 C 173.265625 101.429688 177.082031 109.203125 184.234375 121.546875 C 193.496094 137.53125 191.671875 144.007812 193.941406 159.597656 L 113.664062 159.597656 L 113.664062 195.253906 L 134.023438 203.09375 C 136.039062 209.699219 138.671875 216.054688 141.925781 222.152344 L 133.0625 242.089844 L 166.117188 275.152344 L 186.0625 266.292969 C 192.160156 269.542969 198.511719 272.175781 205.117188 274.191406 L 212.957031 294.550781 L 242.417969 294.550781 C 242.40625 318.863281 249.78125 346.242188 263.914062 375 Z M 249.9375 199.890625 L 222.726562 199.890625 L 222.726562 202.078125 C 222.726562 202.617188 222.78125 203.15625 222.886719 203.6875 C 222.996094 204.214844 223.152344 204.730469 223.359375 205.230469 C 223.566406 205.730469 223.820312 206.207031 224.121094 206.65625 C 224.425781 207.105469 224.765625 207.523438 225.148438 207.90625 C 225.53125 208.289062 225.949219 208.628906 226.398438 208.929688 C 226.847656 209.234375 227.324219 209.488281 227.824219 209.695312 C 228.324219 209.902344 228.835938 210.058594 229.367188 210.167969 C 229.898438 210.273438 230.433594 210.328125 230.976562 210.328125 L 241.6875 210.328125 C 242.226562 210.328125 242.761719 210.273438 243.292969 210.167969 C 243.824219 210.058594 244.339844 209.902344 244.839844 209.695312 C 245.339844 209.488281 245.816406 209.234375 246.265625 208.929688 C 246.714844 208.628906 247.132812 208.289062 247.515625 207.90625 C 247.898438 207.523438 248.238281 207.105469 248.539062 206.65625 C 248.839844 206.207031 249.097656 205.730469 249.304688 205.230469 C 249.511719 204.730469 249.667969 204.214844 249.777344 203.6875 C 249.882812 203.15625 249.9375 202.617188 249.9375 202.078125 Z M 214.261719 179.355469 C 214.261719 179.90625 214.316406 180.453125 214.429688 180.992188 C 214.539062 181.53125 214.699219 182.054688 214.914062 182.558594 C 215.128906 183.066406 215.390625 183.546875 215.703125 184.003906 C 216.011719 184.457031 216.363281 184.878906 216.757812 185.261719 C 217.152344 185.644531 217.582031 185.988281 218.042969 186.285156 C 218.503906 186.585938 218.992188 186.835938 219.503906 187.035156 C 220.015625 187.238281 220.542969 187.386719 221.085938 187.484375 C 221.628906 187.578125 222.175781 187.621094 222.726562 187.609375 L 250.148438 187.609375 C 250.691406 187.605469 251.226562 187.550781 251.757812 187.445312 C 252.289062 187.339844 252.804688 187.179688 253.304688 186.972656 C 253.804688 186.765625 254.277344 186.511719 254.726562 186.210938 C 255.179688 185.910156 255.59375 185.566406 255.976562 185.183594 C 256.359375 184.800781 256.703125 184.382812 257.003906 183.933594 C 257.304688 183.484375 257.558594 183.007812 257.765625 182.511719 C 257.976562 182.011719 258.132812 181.496094 258.238281 180.964844 C 258.34375 180.433594 258.398438 179.898438 258.402344 179.355469 L 258.402344 177.171875 L 214.261719 177.171875 Z M 206.007812 156.632812 C 206.011719 157.175781 206.066406 157.710938 206.171875 158.242188 C 206.277344 158.773438 206.4375 159.289062 206.644531 159.789062 C 206.851562 160.289062 207.105469 160.761719 207.40625 161.210938 C 207.707031 161.660156 208.050781 162.078125 208.433594 162.460938 C 208.816406 162.84375 209.230469 163.1875 209.679688 163.488281 C 210.128906 163.789062 210.605469 164.042969 211.105469 164.25 C 211.605469 164.457031 212.121094 164.617188 212.652344 164.722656 C 213.179688 164.832031 213.71875 164.882812 214.257812 164.886719 L 258.398438 164.886719 C 258.941406 164.886719 259.476562 164.832031 260.007812 164.722656 C 260.539062 164.617188 261.054688 164.460938 261.554688 164.253906 C 262.054688 164.042969 262.527344 163.789062 262.980469 163.488281 C 263.429688 163.1875 263.847656 162.847656 264.230469 162.464844 C 264.613281 162.082031 264.953125 161.664062 265.253906 161.214844 C 265.554688 160.765625 265.8125 160.289062 266.019531 159.789062 C 266.226562 159.289062 266.382812 158.773438 266.492188 158.242188 C 266.597656 157.710938 266.652344 157.175781 266.652344 156.632812 L 266.652344 154.449219 L 206.007812 154.449219 Z M 305.71875 62.015625 C 305.371094 62.21875 305.003906 62.386719 304.625 62.519531 C 304.242188 62.652344 303.851562 62.746094 303.449219 62.796875 C 303.050781 62.851562 302.648438 62.867188 302.246094 62.84375 C 301.84375 62.816406 301.445312 62.753906 301.054688 62.648438 C 300.667969 62.546875 300.289062 62.40625 299.925781 62.226562 C 299.566406 62.046875 299.222656 61.835938 298.902344 61.589844 C 298.582031 61.34375 298.289062 61.070312 298.023438 60.765625 C 297.757812 60.460938 297.523438 60.136719 297.324219 59.785156 C 297.121094 59.4375 296.957031 59.070312 296.828125 58.6875 C 296.699219 58.304688 296.609375 57.914062 296.558594 57.511719 C 296.507812 57.109375 296.496094 56.710938 296.527344 56.308594 C 296.554688 55.902344 296.621094 55.507812 296.730469 55.117188 C 296.835938 54.730469 296.980469 54.355469 297.160156 53.992188 C 297.34375 53.632812 297.558594 53.292969 297.804688 52.972656 C 298.054688 52.65625 298.332031 52.367188 298.636719 52.101562 C 298.941406 51.839844 299.273438 51.609375 299.625 51.410156 L 309.984375 45.429688 C 310.332031 45.230469 310.695312 45.0625 311.078125 44.933594 C 311.457031 44.804688 311.847656 44.714844 312.246094 44.664062 C 312.644531 44.613281 313.042969 44.597656 313.445312 44.625 C 313.84375 44.652344 314.238281 44.71875 314.628906 44.824219 C 315.015625 44.929688 315.390625 45.070312 315.75 45.246094 C 316.109375 45.425781 316.449219 45.636719 316.769531 45.882812 C 317.085938 46.128906 317.378906 46.402344 317.640625 46.703125 C 317.90625 47.007812 318.136719 47.332031 318.339844 47.679688 C 318.539062 48.03125 318.703125 48.394531 318.832031 48.773438 C 318.960938 49.15625 319.050781 49.546875 319.101562 49.945312 C 319.152344 50.34375 319.164062 50.742188 319.136719 51.144531 C 319.109375 51.542969 319.042969 51.9375 318.9375 52.328125 C 318.835938 52.714844 318.691406 53.089844 318.515625 53.449219 C 318.335938 53.808594 318.121094 54.148438 317.878906 54.464844 C 317.632812 54.785156 317.359375 55.074219 317.054688 55.339844 C 316.75 55.601562 316.425781 55.835938 316.078125 56.035156 Z M 279.933594 31.746094 C 279.734375 32.09375 279.5 32.417969 279.234375 32.722656 C 278.96875 33.023438 278.675781 33.296875 278.355469 33.539062 C 278.035156 33.785156 277.695312 33.996094 277.335938 34.171875 C 276.972656 34.351562 276.597656 34.492188 276.210938 34.59375 C 275.820312 34.699219 275.425781 34.765625 275.023438 34.789062 C 274.625 34.816406 274.222656 34.800781 273.824219 34.75 C 273.425781 34.695312 273.035156 34.605469 272.65625 34.472656 C 272.273438 34.34375 271.910156 34.179688 271.5625 33.976562 C 271.214844 33.773438 270.886719 33.542969 270.585938 33.277344 C 270.285156 33.011719 270.011719 32.71875 269.765625 32.398438 C 269.519531 32.078125 269.308594 31.738281 269.132812 31.375 C 268.957031 31.015625 268.816406 30.640625 268.710938 30.253906 C 268.609375 29.863281 268.542969 29.46875 268.515625 29.066406 C 268.492188 28.664062 268.503906 28.265625 268.558594 27.867188 C 268.609375 27.46875 268.703125 27.078125 268.832031 26.695312 C 268.960938 26.316406 269.128906 25.949219 269.328125 25.601562 L 275.3125 15.246094 C 275.511719 14.894531 275.746094 14.570312 276.011719 14.269531 C 276.277344 13.964844 276.570312 13.691406 276.890625 13.449219 C 277.210938 13.203125 277.550781 12.992188 277.910156 12.816406 C 278.273438 12.636719 278.648438 12.496094 279.035156 12.394531 C 279.425781 12.289062 279.820312 12.226562 280.222656 12.199219 C 280.621094 12.175781 281.023438 12.1875 281.421875 12.242188 C 281.820312 12.292969 282.210938 12.386719 282.589844 12.515625 C 282.972656 12.644531 283.335938 12.8125 283.683594 13.011719 C 284.035156 13.214844 284.359375 13.449219 284.660156 13.714844 C 284.960938 13.980469 285.234375 14.273438 285.480469 14.589844 C 285.726562 14.910156 285.9375 15.25 286.113281 15.613281 C 286.292969 15.972656 286.429688 16.347656 286.535156 16.738281 C 286.640625 17.125 286.703125 17.519531 286.730469 17.921875 C 286.753906 18.324219 286.742188 18.726562 286.6875 19.125 C 286.636719 19.523438 286.542969 19.914062 286.414062 20.292969 C 286.285156 20.675781 286.117188 21.039062 285.917969 21.386719 Z M 173.039062 51.410156 C 173.382812 51.613281 173.707031 51.84375 174.003906 52.109375 C 174.304688 52.375 174.574219 52.667969 174.816406 52.984375 C 175.058594 53.300781 175.265625 53.640625 175.441406 54 C 175.617188 54.359375 175.757812 54.730469 175.859375 55.117188 C 175.960938 55.503906 176.027344 55.894531 176.050781 56.292969 C 176.078125 56.691406 176.0625 57.089844 176.011719 57.484375 C 175.960938 57.882812 175.871094 58.269531 175.742188 58.648438 C 175.613281 59.027344 175.449219 59.386719 175.25 59.734375 C 175.050781 60.082031 174.820312 60.40625 174.558594 60.707031 C 174.296875 61.007812 174.007812 61.28125 173.691406 61.523438 C 173.375 61.769531 173.039062 61.980469 172.679688 62.160156 C 172.324219 62.335938 171.953125 62.480469 171.566406 62.585938 C 171.183594 62.691406 170.789062 62.757812 170.390625 62.789062 C 169.992188 62.816406 169.597656 62.804688 169.199219 62.757812 C 168.804688 62.707031 168.414062 62.621094 168.035156 62.496094 C 167.65625 62.371094 167.292969 62.210938 166.945312 62.015625 L 156.585938 56.035156 C 156.242188 55.832031 155.917969 55.597656 155.621094 55.332031 C 155.320312 55.070312 155.050781 54.777344 154.808594 54.460938 C 154.566406 54.140625 154.359375 53.804688 154.183594 53.445312 C 154.007812 53.085938 153.867188 52.714844 153.765625 52.328125 C 153.664062 51.941406 153.597656 51.546875 153.574219 51.148438 C 153.546875 50.75 153.5625 50.355469 153.613281 49.957031 C 153.664062 49.5625 153.753906 49.175781 153.882812 48.796875 C 154.011719 48.417969 154.175781 48.054688 154.375 47.710938 C 154.574219 47.363281 154.804688 47.039062 155.066406 46.738281 C 155.328125 46.4375 155.617188 46.164062 155.933594 45.917969 C 156.25 45.675781 156.585938 45.464844 156.945312 45.285156 C 157.300781 45.105469 157.671875 44.964844 158.058594 44.859375 C 158.441406 44.753906 158.835938 44.6875 159.234375 44.65625 C 159.632812 44.628906 160.027344 44.636719 160.425781 44.6875 C 160.820312 44.734375 161.210938 44.820312 161.589844 44.945312 C 161.96875 45.070312 162.332031 45.230469 162.679688 45.429688 Z M 203.332031 25.625 C 203.53125 25.976562 203.695312 26.339844 203.824219 26.71875 C 203.953125 27.101562 204.042969 27.488281 204.09375 27.886719 C 204.144531 28.285156 204.15625 28.683594 204.128906 29.085938 C 204.105469 29.484375 204.039062 29.878906 203.933594 30.265625 C 203.828125 30.65625 203.6875 31.027344 203.507812 31.386719 C 203.328125 31.746094 203.117188 32.085938 202.875 32.40625 C 202.628906 32.722656 202.355469 33.011719 202.050781 33.277344 C 201.75 33.542969 201.425781 33.773438 201.078125 33.972656 C 200.726562 34.175781 200.363281 34.339844 199.984375 34.464844 C 199.601562 34.59375 199.214844 34.683594 198.816406 34.738281 C 198.417969 34.789062 198.019531 34.800781 197.617188 34.773438 C 197.21875 34.746094 196.824219 34.679688 196.4375 34.574219 C 196.046875 34.472656 195.675781 34.332031 195.316406 34.152344 C 194.957031 33.972656 194.617188 33.761719 194.296875 33.515625 C 193.980469 33.273438 193.6875 33 193.425781 32.695312 C 193.160156 32.394531 192.929688 32.070312 192.726562 31.722656 L 186.746094 21.363281 C 186.546875 21.015625 186.382812 20.648438 186.253906 20.269531 C 186.125 19.886719 186.035156 19.5 185.984375 19.101562 C 185.933594 18.703125 185.921875 18.304688 185.949219 17.902344 C 185.976562 17.5 186.039062 17.109375 186.144531 16.71875 C 186.25 16.332031 186.390625 15.957031 186.570312 15.597656 C 186.75 15.238281 186.960938 14.898438 187.207031 14.582031 C 187.449219 14.265625 187.722656 13.972656 188.027344 13.707031 C 188.328125 13.445312 188.65625 13.210938 189.003906 13.011719 C 189.351562 12.8125 189.714844 12.648438 190.09375 12.519531 C 190.476562 12.390625 190.867188 12.300781 191.265625 12.25 C 191.664062 12.199219 192.0625 12.1875 192.460938 12.214844 C 192.863281 12.238281 193.257812 12.304688 193.644531 12.410156 C 194.03125 12.515625 194.40625 12.65625 194.765625 12.835938 C 195.125 13.015625 195.464844 13.226562 195.78125 13.46875 C 196.101562 13.714844 196.390625 13.988281 196.65625 14.292969 C 196.921875 14.59375 197.152344 14.917969 197.351562 15.269531 Z M 242.472656 18.410156 C 242.472656 18.8125 242.433594 19.210938 242.355469 19.609375 C 242.277344 20.003906 242.160156 20.386719 242.007812 20.757812 C 241.851562 21.132812 241.664062 21.484375 241.4375 21.820312 C 241.214844 22.15625 240.960938 22.46875 240.675781 22.753906 C 240.390625 23.039062 240.078125 23.292969 239.742188 23.515625 C 239.410156 23.742188 239.054688 23.929688 238.683594 24.085938 C 238.308594 24.238281 237.925781 24.355469 237.53125 24.433594 C 237.132812 24.511719 236.734375 24.550781 236.332031 24.550781 C 235.929688 24.550781 235.527344 24.511719 235.132812 24.433594 C 234.738281 24.355469 234.351562 24.238281 233.980469 24.085938 C 233.609375 23.929688 233.253906 23.742188 232.917969 23.515625 C 232.582031 23.292969 232.273438 23.039062 231.988281 22.753906 C 231.703125 22.46875 231.449219 22.15625 231.222656 21.820312 C 231 21.484375 230.8125 21.132812 230.65625 20.757812 C 230.503906 20.386719 230.386719 20.003906 230.308594 19.609375 C 230.226562 19.210938 230.1875 18.8125 230.1875 18.410156 L 230.1875 6.449219 C 230.1875 6.046875 230.226562 5.648438 230.308594 5.25 C 230.386719 4.855469 230.503906 4.472656 230.65625 4.097656 C 230.8125 3.726562 231 3.371094 231.222656 3.035156 C 231.449219 2.703125 231.703125 2.390625 231.988281 2.105469 C 232.273438 1.820312 232.582031 1.566406 232.917969 1.34375 C 233.253906 1.117188 233.609375 0.929688 233.980469 0.773438 C 234.351562 0.621094 234.738281 0.503906 235.132812 0.425781 C 235.527344 0.347656 235.929688 0.308594 236.332031 0.308594 C 236.734375 0.308594 237.132812 0.347656 237.53125 0.425781 C 237.925781 0.503906 238.308594 0.621094 238.683594 0.773438 C 239.054688 0.929688 239.410156 1.117188 239.742188 1.34375 C 240.078125 1.566406 240.390625 1.820312 240.675781 2.105469 C 240.960938 2.390625 241.214844 2.703125 241.4375 3.035156 C 241.664062 3.371094 241.851562 3.726562 242.007812 4.097656 C 242.160156 4.472656 242.277344 4.855469 242.355469 5.25 C 242.433594 5.648438 242.472656 6.046875 242.472656 6.449219 Z M 236.332031 35.574219 C 234.667969 35.574219 233.007812 35.65625 231.355469 35.820312 C 229.699219 35.984375 228.054688 36.226562 226.425781 36.550781 C 224.792969 36.875 223.183594 37.277344 221.589844 37.761719 C 220 38.246094 218.433594 38.804688 216.898438 39.441406 C 215.363281 40.078125 213.859375 40.789062 212.394531 41.570312 C 210.925781 42.355469 209.5 43.210938 208.117188 44.132812 C 206.734375 45.058594 205.402344 46.046875 204.117188 47.101562 C 202.832031 48.15625 201.597656 49.273438 200.421875 50.449219 C 199.246094 51.625 198.132812 52.855469 197.078125 54.140625 C 196.023438 55.425781 195.03125 56.761719 194.109375 58.144531 C 193.183594 59.527344 192.328125 60.953125 191.546875 62.417969 C 190.761719 63.886719 190.050781 65.386719 189.414062 66.921875 C 188.777344 68.460938 188.21875 70.023438 187.738281 71.617188 C 187.253906 73.207031 186.851562 74.820312 186.527344 76.449219 C 186.199219 78.082031 185.957031 79.726562 185.792969 81.378906 C 185.632812 83.035156 185.550781 84.695312 185.550781 86.359375 C 185.550781 111.445312 199.808594 112.882812 204.675781 142.164062 L 221.417969 142.164062 L 221.417969 104.675781 L 215.761719 104.675781 C 215.175781 104.675781 214.585938 104.648438 214.003906 104.589844 C 213.417969 104.53125 212.835938 104.445312 212.261719 104.332031 C 211.683594 104.214844 211.117188 104.074219 210.554688 103.902344 C 209.992188 103.734375 209.4375 103.535156 208.894531 103.308594 C 208.351562 103.085938 207.820312 102.835938 207.304688 102.558594 C 206.785156 102.28125 206.28125 101.976562 205.792969 101.652344 C 205.304688 101.324219 204.832031 100.976562 204.378906 100.601562 C 203.925781 100.230469 203.488281 99.835938 203.074219 99.421875 C 202.660156 99.003906 202.265625 98.570312 201.890625 98.117188 C 201.519531 97.660156 201.167969 97.191406 200.84375 96.703125 C 200.515625 96.214844 200.214844 95.710938 199.9375 95.191406 C 199.660156 94.671875 199.410156 94.140625 199.183594 93.597656 C 198.960938 93.054688 198.761719 92.503906 198.589844 91.941406 C 198.421875 91.378906 198.277344 90.808594 198.164062 90.234375 C 198.046875 89.65625 197.960938 89.078125 197.90625 88.492188 C 197.847656 87.90625 197.820312 87.320312 197.820312 86.734375 C 197.820312 86.144531 197.847656 85.558594 197.90625 84.972656 C 197.960938 84.390625 198.046875 83.808594 198.164062 83.230469 C 198.277344 82.65625 198.421875 82.085938 198.589844 81.523438 C 198.761719 80.960938 198.960938 80.410156 199.183594 79.867188 C 199.410156 79.324219 199.660156 78.792969 199.9375 78.273438 C 200.214844 77.757812 200.515625 77.253906 200.84375 76.765625 C 201.167969 76.277344 201.519531 75.804688 201.890625 75.351562 C 202.265625 74.894531 202.660156 74.460938 203.074219 74.046875 C 203.488281 73.628906 203.925781 73.234375 204.378906 72.863281 C 204.832031 72.488281 205.304688 72.140625 205.792969 71.8125 C 206.28125 71.488281 206.785156 71.1875 207.304688 70.910156 C 207.820312 70.632812 208.351562 70.378906 208.894531 70.15625 C 209.4375 69.929688 209.992188 69.734375 210.554688 69.5625 C 211.117188 69.390625 211.683594 69.25 212.261719 69.132812 C 212.835938 69.019531 213.417969 68.933594 214.003906 68.875 C 214.585938 68.820312 215.175781 68.789062 215.761719 68.789062 C 216.347656 68.789062 216.9375 68.820312 217.519531 68.875 C 218.105469 68.933594 218.6875 69.019531 219.261719 69.132812 C 219.839844 69.25 220.40625 69.390625 220.96875 69.5625 C 221.53125 69.734375 222.085938 69.929688 222.628906 70.15625 C 223.171875 70.378906 223.703125 70.632812 224.21875 70.910156 C 224.738281 71.1875 225.242188 71.488281 225.730469 71.8125 C 226.21875 72.140625 226.691406 72.488281 227.144531 72.863281 C 227.597656 73.234375 228.035156 73.628906 228.449219 74.046875 C 228.863281 74.460938 229.257812 74.894531 229.632812 75.351562 C 230.003906 75.804688 230.355469 76.277344 230.679688 76.765625 C 231.007812 77.253906 231.308594 77.757812 231.585938 78.273438 C 231.863281 78.792969 232.113281 79.324219 232.339844 79.867188 C 232.5625 80.410156 232.761719 80.960938 232.933594 81.523438 C 233.101562 82.085938 233.246094 82.65625 233.359375 83.230469 C 233.472656 83.808594 233.5625 84.390625 233.617188 84.972656 C 233.675781 85.558594 233.703125 86.144531 233.703125 86.734375 L 233.703125 92.390625 L 238.957031 92.390625 L 238.957031 86.734375 C 238.957031 86.144531 238.988281 85.558594 239.046875 84.972656 C 239.101562 84.390625 239.1875 83.808594 239.304688 83.230469 C 239.417969 82.65625 239.5625 82.085938 239.730469 81.523438 C 239.902344 80.960938 240.101562 80.410156 240.324219 79.867188 C 240.550781 79.324219 240.800781 78.792969 241.078125 78.273438 C 241.355469 77.757812 241.65625 77.253906 241.984375 76.765625 C 242.308594 76.277344 242.660156 75.804688 243.03125 75.351562 C 243.40625 74.894531 243.796875 74.460938 244.214844 74.046875 C 244.628906 73.628906 245.066406 73.234375 245.519531 72.863281 C 245.972656 72.488281 246.445312 72.140625 246.933594 71.8125 C 247.421875 71.488281 247.925781 71.1875 248.445312 70.910156 C 248.960938 70.632812 249.492188 70.378906 250.035156 70.15625 C 250.578125 69.929688 251.132812 69.734375 251.691406 69.5625 C 252.253906 69.390625 252.824219 69.25 253.402344 69.132812 C 253.976562 69.019531 254.558594 68.933594 255.144531 68.875 C 255.726562 68.820312 256.3125 68.789062 256.902344 68.789062 C 257.488281 68.789062 258.074219 68.820312 258.660156 68.875 C 259.246094 68.933594 259.824219 69.019531 260.402344 69.132812 C 260.980469 69.25 261.546875 69.390625 262.109375 69.5625 C 262.671875 69.734375 263.226562 69.929688 263.769531 70.15625 C 264.3125 70.378906 264.84375 70.632812 265.359375 70.910156 C 265.878906 71.1875 266.382812 71.488281 266.871094 71.8125 C 267.359375 72.140625 267.832031 72.488281 268.285156 72.863281 C 268.738281 73.234375 269.175781 73.628906 269.589844 74.046875 C 270.003906 74.460938 270.398438 74.894531 270.773438 75.351562 C 271.144531 75.804688 271.496094 76.277344 271.820312 76.765625 C 272.148438 77.253906 272.449219 77.757812 272.726562 78.273438 C 273.003906 78.792969 273.253906 79.324219 273.480469 79.867188 C 273.703125 80.410156 273.902344 80.960938 274.070312 81.523438 C 274.242188 82.085938 274.386719 82.65625 274.5 83.234375 C 274.613281 83.808594 274.699219 84.390625 274.757812 84.972656 C 274.816406 85.558594 274.84375 86.144531 274.84375 86.734375 C 274.84375 87.320312 274.816406 87.90625 274.757812 88.492188 C 274.699219 89.078125 274.613281 89.65625 274.5 90.234375 C 274.386719 90.808594 274.242188 91.378906 274.070312 91.941406 C 273.902344 92.503906 273.703125 93.054688 273.480469 93.597656 C 273.253906 94.140625 273.003906 94.671875 272.726562 95.191406 C 272.449219 95.710938 272.148438 96.214844 271.820312 96.703125 C 271.496094 97.191406 271.144531 97.660156 270.773438 98.117188 C 270.398438 98.570312 270.003906 99.003906 269.589844 99.421875 C 269.175781 99.835938 268.738281 100.230469 268.285156 100.601562 C 267.832031 100.976562 267.359375 101.324219 266.871094 101.652344 C 266.382812 101.976562 265.878906 102.28125 265.359375 102.558594 C 264.84375 102.835938 264.3125 103.085938 263.769531 103.308594 C 263.226562 103.535156 262.671875 103.734375 262.109375 103.902344 C 261.546875 104.074219 260.980469 104.214844 260.402344 104.332031 C 259.824219 104.445312 259.246094 104.53125 258.660156 104.589844 C 258.074219 104.648438 257.488281 104.675781 256.902344 104.675781 L 251.242188 104.675781 L 251.242188 142.164062 L 267.988281 142.164062 C 272.855469 112.886719 287.113281 111.453125 287.113281 86.359375 C 287.113281 84.695312 287.03125 83.039062 286.871094 81.382812 C 286.707031 79.726562 286.460938 78.082031 286.136719 76.453125 C 285.8125 74.820312 285.410156 73.210938 284.925781 71.617188 C 284.445312 70.027344 283.886719 68.460938 283.25 66.925781 C 282.613281 65.390625 281.902344 63.886719 281.117188 62.421875 C 280.332031 60.953125 279.480469 59.53125 278.554688 58.148438 C 277.632812 56.765625 276.640625 55.429688 275.585938 54.144531 C 274.53125 52.859375 273.417969 51.628906 272.242188 50.453125 C 271.0625 49.273438 269.832031 48.160156 268.546875 47.105469 C 267.261719 46.050781 265.929688 45.058594 264.546875 44.136719 C 263.164062 43.210938 261.738281 42.359375 260.269531 41.574219 C 258.804688 40.789062 257.300781 40.078125 255.765625 39.441406 C 254.230469 38.804688 252.664062 38.246094 251.074219 37.765625 C 249.480469 37.28125 247.871094 36.878906 246.238281 36.554688 C 244.609375 36.230469 242.964844 35.984375 241.308594 35.820312 C 239.652344 35.660156 237.996094 35.578125 236.332031 35.578125 Z M 238.957031 142.164062 L 238.957031 104.675781 L 233.703125 104.675781 L 233.703125 142.164062 Z M 221.417969 92.390625 L 221.417969 86.734375 C 221.417969 86.363281 221.382812 85.992188 221.3125 85.628906 C 221.238281 85.265625 221.132812 84.910156 220.988281 84.566406 C 220.847656 84.222656 220.671875 83.898438 220.464844 83.589844 C 220.261719 83.28125 220.023438 82.992188 219.761719 82.730469 C 219.5 82.46875 219.214844 82.234375 218.90625 82.027344 C 218.597656 81.820312 218.269531 81.648438 217.925781 81.503906 C 217.582031 81.363281 217.230469 81.253906 216.863281 81.183594 C 216.5 81.109375 216.132812 81.074219 215.761719 81.074219 C 215.390625 81.074219 215.023438 81.109375 214.65625 81.183594 C 214.292969 81.253906 213.9375 81.363281 213.59375 81.503906 C 213.253906 81.644531 212.925781 81.820312 212.617188 82.027344 C 212.308594 82.234375 212.023438 82.46875 211.757812 82.730469 C 211.496094 82.992188 211.261719 83.28125 211.054688 83.589844 C 210.847656 83.898438 210.675781 84.222656 210.53125 84.566406 C 210.390625 84.910156 210.285156 85.265625 210.210938 85.628906 C 210.136719 85.992188 210.101562 86.359375 210.101562 86.730469 C 210.101562 87.105469 210.136719 87.472656 210.210938 87.835938 C 210.285156 88.199219 210.390625 88.554688 210.53125 88.898438 C 210.675781 89.242188 210.847656 89.566406 211.054688 89.875 C 211.261719 90.183594 211.496094 90.472656 211.761719 90.734375 C 212.023438 90.996094 212.308594 91.230469 212.617188 91.4375 C 212.925781 91.644531 213.253906 91.816406 213.597656 91.960938 C 213.9375 92.101562 214.292969 92.210938 214.65625 92.28125 C 215.023438 92.355469 215.390625 92.390625 215.761719 92.390625 Z M 251.242188 92.390625 L 256.902344 92.390625 C 257.273438 92.390625 257.640625 92.355469 258.003906 92.28125 C 258.371094 92.210938 258.722656 92.101562 259.066406 91.960938 C 259.410156 91.816406 259.734375 91.644531 260.046875 91.4375 C 260.355469 91.230469 260.640625 90.996094 260.902344 90.734375 C 261.164062 90.46875 261.398438 90.183594 261.605469 89.875 C 261.8125 89.566406 261.988281 89.242188 262.128906 88.898438 C 262.269531 88.554688 262.378906 88.199219 262.449219 87.835938 C 262.523438 87.472656 262.558594 87.105469 262.558594 86.730469 C 262.558594 86.359375 262.523438 85.992188 262.449219 85.628906 C 262.378906 85.265625 262.269531 84.910156 262.128906 84.566406 C 261.984375 84.222656 261.8125 83.898438 261.605469 83.589844 C 261.398438 83.28125 261.164062 82.996094 260.902344 82.730469 C 260.640625 82.46875 260.351562 82.234375 260.042969 82.027344 C 259.734375 81.820312 259.410156 81.648438 259.066406 81.503906 C 258.722656 81.363281 258.367188 81.257812 258.003906 81.183594 C 257.640625 81.109375 257.273438 81.074219 256.902344 81.074219 C 256.53125 81.074219 256.160156 81.109375 255.796875 81.183594 C 255.433594 81.257812 255.078125 81.363281 254.734375 81.503906 C 254.390625 81.648438 254.066406 81.820312 253.757812 82.027344 C 253.449219 82.234375 253.164062 82.46875 252.898438 82.730469 C 252.636719 82.996094 252.402344 83.28125 252.195312 83.589844 C 251.988281 83.898438 251.816406 84.222656 251.671875 84.566406 C 251.53125 84.910156 251.425781 85.265625 251.351562 85.628906 C 251.28125 85.992188 251.242188 86.363281 251.242188 86.734375 Z M 236.332031 223.988281 C 234.625 223.988281 232.921875 223.90625 231.222656 223.738281 C 229.527344 223.570312 227.839844 223.320312 226.167969 222.988281 C 224.492188 222.65625 222.839844 222.242188 221.207031 221.746094 C 219.574219 221.25 217.96875 220.675781 216.390625 220.023438 C 214.816406 219.371094 213.273438 218.640625 211.769531 217.835938 C 210.265625 217.03125 208.800781 216.15625 207.382812 215.207031 C 205.964844 214.257812 204.59375 213.246094 203.277344 212.160156 C 201.957031 211.078125 200.695312 209.933594 199.488281 208.726562 C 198.28125 207.519531 197.136719 206.257812 196.054688 204.9375 C 194.96875 203.621094 193.957031 202.25 193.007812 200.832031 C 192.058594 199.414062 191.183594 197.949219 190.378906 196.445312 C 189.574219 194.941406 188.84375 193.398438 188.191406 191.824219 C 187.539062 190.246094 186.964844 188.640625 186.46875 187.007812 C 185.972656 185.375 185.558594 183.722656 185.226562 182.046875 C 184.894531 180.375 184.644531 178.6875 184.476562 176.992188 C 184.308594 175.292969 184.226562 173.589844 184.226562 171.882812 L 125.949219 171.882812 L 125.949219 186.820312 L 144.238281 193.863281 C 146.574219 203.667969 150.386719 212.863281 155.675781 221.449219 L 147.714844 239.371094 L 168.839844 260.5 L 186.769531 252.539062 C 195.351562 257.824219 204.546875 261.636719 214.351562 263.972656 L 221.394531 282.265625 L 251.265625 282.265625 L 258.308594 263.972656 C 268.117188 261.636719 277.3125 257.828125 285.894531 252.539062 L 303.820312 260.5 L 324.945312 239.371094 L 316.992188 221.453125 C 322.28125 212.867188 326.09375 203.671875 328.433594 193.859375 L 346.71875 186.820312 L 346.71875 171.882812 L 288.441406 171.882812 C 288.441406 173.589844 288.359375 175.292969 288.191406 176.992188 C 288.023438 178.691406 287.773438 180.375 287.441406 182.050781 C 287.109375 183.722656 286.695312 185.375 286.199219 187.011719 C 285.703125 188.644531 285.128906 190.25 284.476562 191.824219 C 283.824219 193.402344 283.09375 194.941406 282.289062 196.449219 C 281.484375 197.953125 280.609375 199.414062 279.660156 200.832031 C 278.710938 202.253906 277.695312 203.621094 276.613281 204.941406 C 275.53125 206.261719 274.386719 207.523438 273.179688 208.730469 C 271.972656 209.9375 270.710938 211.082031 269.390625 212.164062 C 268.070312 213.246094 266.703125 214.261719 265.28125 215.210938 C 263.863281 216.15625 262.402344 217.035156 260.894531 217.839844 C 259.390625 218.644531 257.851562 219.371094 256.273438 220.023438 C 254.695312 220.675781 253.089844 221.25 251.457031 221.746094 C 249.824219 222.242188 248.171875 222.65625 246.496094 222.988281 C 244.824219 223.320312 243.136719 223.570312 241.4375 223.738281 C 239.742188 223.90625 238.039062 223.988281 236.332031 223.988281 Z M 236.332031 223.988281 " fill-opacity="1" fill-rule="evenodd"/></g></svg>