<svg xmlns="http://www.w3.org/2000/svg" xmlns:xlink="http://www.w3.org/1999/xlink" width="500" zoomAndPan="magnify" viewBox="0 0 375 374.999991" height="500" preserveAspectRatio="xMidYMid meet" version="1.0"><defs><clipPath id="aa7e40f0c9"><path d="M 26.71875 0 L 348.46875 0 L 348.46875 375 L 26.71875 375 Z M 26.71875 0 " clip-rule="nonzero"/></clipPath></defs><g clip-path="url(#aa7e40f0c9)"><path fill="#000000" d="M 187.59375 375 C 185.628906 375 183.679688 374.574219 181.863281 373.71875 C 87.664062 329.210938 26.785156 233.160156 26.785156 129.011719 L 26.785156 53.570312 C 26.785156 47.527344 30.828125 42.238281 36.667969 40.648438 L 184.074219 0.472656 C 186.378906 -0.15625 188.808594 -0.15625 191.113281 0.472656 L 338.519531 40.648438 C 344.355469 42.238281 348.402344 47.53125 348.402344 53.570312 L 348.402344 129.011719 C 348.402344 233.160156 287.523438 329.210938 193.324219 373.71875 C 191.507812 374.574219 189.558594 375 187.59375 375 Z M 53.585938 63.800781 L 53.585938 129.011719 C 53.585938 220.726562 105.972656 305.472656 187.59375 346.703125 C 269.214844 305.472656 321.601562 220.726562 321.601562 129.011719 L 321.601562 63.800781 L 187.59375 27.277344 Z M 53.585938 63.800781 " fill-opacity="1" fill-rule="nonzero"/></g><path fill="#000000" d="M 160.792969 241.070312 C 157.363281 241.070312 153.933594 239.761719 151.316406 237.148438 L 97.714844 183.574219 C 92.480469 178.34375 92.480469 169.871094 97.714844 164.636719 C 102.949219 159.40625 111.429688 159.40625 116.664062 164.636719 L 160.792969 208.738281 L 258.523438 111.066406 C 263.757812 105.835938 272.238281 105.835938 277.476562 111.066406 C 282.710938 116.296875 282.710938 124.773438 277.476562 130.003906 L 170.269531 237.148438 C 167.652344 239.761719 164.222656 241.070312 160.796875 241.070312 Z M 160.792969 241.070312 " fill-opacity="1" fill-rule="nonzero"/></svg>