<svg xmlns="http://www.w3.org/2000/svg" xmlns:xlink="http://www.w3.org/1999/xlink" width="500" zoomAndPan="magnify" viewBox="0 0 375 374.999991" height="500" preserveAspectRatio="xMidYMid meet" version="1.0"><defs><clipPath id="317ceaa339"><path d="M 0 1.875 L 375 1.875 L 375 372 L 0 372 Z M 0 1.875 " clip-rule="nonzero"/></clipPath></defs><g clip-path="url(#317ceaa339)"><path fill="#000000" d="M 270.851562 164.964844 C 253.226562 164.964844 244.386719 186.316406 256.847656 198.78125 C 259.144531 201.074219 259.144531 204.800781 256.847656 207.09375 L 244.191406 219.75 C 241.894531 222.046875 238.171875 222.046875 235.875 219.75 C 229.441406 213.316406 220.632812 212.5625 213.621094 215.765625 L 213.65625 184.066406 C 223.746094 176.199219 230.238281 163.925781 230.238281 150.140625 C 230.238281 126.390625 210.984375 107.136719 187.234375 107.136719 C 163.484375 107.136719 144.234375 126.390625 144.234375 150.140625 C 144.234375 164.035156 150.824219 176.386719 161.050781 184.246094 L 161.050781 215.847656 C 154.011719 212.535156 145.097656 213.246094 138.59375 219.75 C 136.296875 222.046875 132.574219 222.046875 130.28125 219.75 L 117.621094 207.09375 C 115.328125 204.800781 115.328125 201.074219 117.621094 198.78125 C 130.085938 186.320312 121.242188 164.964844 103.617188 164.964844 C 100.371094 164.964844 97.738281 162.332031 97.738281 159.089844 L 97.738281 141.191406 C 97.738281 137.945312 100.371094 135.3125 103.617188 135.3125 C 121.242188 135.3125 130.085938 113.960938 117.621094 101.5 C 115.328125 99.203125 115.328125 95.480469 117.621094 93.183594 L 130.28125 80.527344 C 132.574219 78.230469 136.296875 78.230469 138.59375 80.527344 C 151.054688 92.988281 172.40625 84.144531 172.40625 66.523438 C 172.40625 63.273438 175.039062 60.644531 178.285156 60.644531 L 196.183594 60.644531 C 199.429688 60.644531 202.0625 63.273438 202.0625 66.523438 C 202.0625 84.144531 223.414062 92.988281 235.875 80.527344 C 238.171875 78.230469 241.894531 78.230469 244.191406 80.527344 L 256.847656 93.183594 C 259.140625 95.480469 259.140625 99.203125 256.847656 101.5 C 244.386719 113.960938 253.226562 135.3125 270.851562 135.3125 C 274.101562 135.3125 276.730469 137.945312 276.730469 141.191406 L 276.730469 159.089844 C 276.730469 162.332031 274.101562 164.964844 270.851562 164.964844 Z M 356.355469 298.382812 L 312.597656 298.382812 C 309.664062 298.382812 307.289062 296.007812 307.289062 293.074219 C 307.289062 290.144531 309.664062 287.769531 312.597656 287.769531 L 356.355469 287.769531 L 342.96875 274.386719 C 340.898438 272.3125 340.898438 268.953125 342.96875 266.882812 C 345.042969 264.808594 348.402344 264.808594 350.472656 266.882812 L 372.917969 289.324219 C 374.988281 291.394531 374.988281 294.753906 372.917969 296.828125 L 350.472656 319.269531 C 348.402344 321.339844 345.042969 321.339844 342.96875 319.269531 C 340.898438 317.199219 340.898438 313.839844 342.96875 311.765625 Z M 28.621094 101.789062 L 41.328125 123.796875 C 39.792969 132.347656 38.992188 141.148438 38.992188 150.140625 C 38.992188 205.609375 69.894531 256.3125 119.132812 281.832031 C 121.730469 283.171875 124.921875 282.148438 126.261719 279.550781 C 127.601562 276.953125 126.578125 273.761719 123.980469 272.421875 C 78.242188 248.714844 49.605469 201.664062 49.605469 150.140625 C 49.605469 141.992188 50.316406 134.007812 51.671875 126.246094 L 73.304688 113.757812 C 75.835938 112.304688 76.707031 109.074219 75.253906 106.542969 C 73.800781 104.015625 70.570312 103.144531 68.039062 104.597656 L 54.90625 112.179688 C 71.765625 53.304688 125.761719 12.507812 187.234375 12.507812 C 245.199219 12.507812 296.835938 48.800781 316.585938 103.019531 L 304.082031 124.679688 C 302.617188 127.207031 303.480469 130.445312 306.007812 131.910156 C 308.539062 133.378906 311.777344 132.511719 313.242188 129.984375 L 320.816406 116.867188 C 323.460938 127.523438 324.867188 138.667969 324.867188 150.140625 C 324.867188 180.460938 315.039062 209.636719 296.601562 233.722656 C 294.828125 236.046875 295.273438 239.371094 297.597656 241.144531 C 299.921875 242.917969 303.242188 242.472656 305.015625 240.148438 C 324.84375 214.242188 335.480469 182.753906 335.480469 150.140625 C 335.480469 137.960938 334.011719 126.128906 331.242188 114.804688 L 343.480469 121.871094 C 346.011719 123.335938 349.25 122.472656 350.714844 119.945312 C 352.179688 117.414062 351.316406 114.175781 348.789062 112.710938 L 326.785156 100.007812 C 305.6875 41.289062 249.910156 1.894531 187.234375 1.894531 C 121.21875 1.894531 63.1875 45.578125 44.855469 108.734375 L 37.78125 96.484375 C 36.316406 93.953125 33.078125 93.089844 30.546875 94.554688 C 28.019531 96.019531 27.15625 99.257812 28.621094 101.789062 Z M 134.816406 287.769531 C 137.75 287.769531 140.125 290.144531 140.125 293.074219 C 140.125 296.007812 137.75 298.382812 134.816406 298.382812 L 5.308594 298.382812 C 2.375 298.382812 0 296.007812 0 293.074219 C 0 290.144531 2.375 287.769531 5.308594 287.769531 Z M 202.960938 261.488281 L 203.050781 177.136719 C 203.054688 168.507812 195.996094 161.4375 187.363281 161.433594 C 178.734375 161.429688 171.664062 168.484375 171.660156 177.117188 L 171.671875 298.816406 C 158.03125 294.28125 150.878906 296.042969 145.933594 303.601562 C 140.359375 312.121094 142.480469 323.363281 150.71875 329.339844 C 186.539062 355.332031 188.292969 368.460938 231.777344 370.953125 C 269.09375 373.089844 297.457031 342.753906 297.554688 308.160156 L 297.179688 260.972656 C 297.1875 252.339844 290.125 245.273438 281.496094 245.269531 C 272.867188 245.261719 265.796875 252.320312 265.800781 260.960938 C 265.820312 252.339844 258.757812 245.273438 250.125 245.269531 C 241.496094 245.261719 234.425781 252.320312 234.429688 260.960938 C 234.445312 252.339844 227.382812 245.273438 218.75 245.269531 C 210.125 245.261719 202.917969 252.855469 202.960938 261.488281 Z M 202.960938 261.488281 " fill-opacity="1" fill-rule="evenodd"/></g></svg>