<svg xmlns="http://www.w3.org/2000/svg" xmlns:xlink="http://www.w3.org/1999/xlink" width="500" zoomAndPan="magnify" viewBox="0 0 375 374.999991" height="500" preserveAspectRatio="xMidYMid meet" version="1.0"><defs><clipPath id="a52c27318e"><path d="M 0 30 L 375 30 L 375 345 L 0 345 Z M 0 30 " clip-rule="nonzero"/></clipPath></defs><g clip-path="url(#a52c27318e)"><path fill="#000000" d="M 372.132812 110.980469 L 297.730469 32.261719 C 296.351562 30.804688 294.4375 29.980469 292.433594 29.980469 L 82.566406 29.980469 C 80.5625 29.980469 78.648438 30.804688 77.269531 32.261719 L 2.867188 110.980469 C 0.359375 113.632812 0.203125 117.734375 2.5 120.570312 L 181.832031 342.242188 C 183.214844 343.953125 185.300781 344.945312 187.5 344.945312 C 189.699219 344.945312 191.78125 343.953125 193.167969 342.242188 L 372.5 120.570312 C 374.796875 117.734375 374.640625 113.632812 372.132812 110.980469 Z M 80.207031 50.382812 L 104.933594 108.695312 L 25.089844 108.695312 Z M 248.996094 123.277344 L 187.5 310.800781 L 126.003906 123.277344 Z M 132.585938 108.695312 L 187.5 49.167969 L 242.414062 108.695312 Z M 203.085938 44.5625 L 281.421875 44.5625 L 256.757812 102.738281 Z M 118.242188 102.738281 L 93.578125 44.5625 L 171.914062 44.5625 Z M 110.660156 123.277344 L 170.113281 304.578125 L 23.441406 123.277344 Z M 264.339844 123.277344 L 351.558594 123.277344 L 204.886719 304.578125 Z M 270.066406 108.695312 L 294.792969 50.382812 L 349.910156 108.695312 Z M 270.066406 108.695312 " fill-opacity="1" fill-rule="nonzero"/></g></svg>