<svg xmlns="http://www.w3.org/2000/svg" xmlns:xlink="http://www.w3.org/1999/xlink" width="500" zoomAndPan="magnify" viewBox="0 0 375 374.999991" height="500" preserveAspectRatio="xMidYMid meet" version="1.0"><defs><g/></defs><g fill="#ffffff" fill-opacity="1"><g transform="translate(29.152136, 238.499984)"><g><path d="M 56.15625 -27.09375 C 56.15625 -21.09375 54.921875 -16.078125 52.453125 -12.046875 C 49.984375 -8.015625 46.71875 -5 42.65625 -3 C 38.59375 -1 34.125 0 29.25 0 C 24.3125 0 19.84375 -0.96875 15.84375 -2.90625 C 11.84375 -4.84375 8.671875 -7.609375 6.328125 -11.203125 C 3.984375 -14.796875 2.8125 -19.03125 2.8125 -23.90625 L 4.03125 -23.90625 C 4.03125 -20.15625 4.75 -16.859375 6.1875 -14.015625 C 7.625 -11.171875 9.5625 -8.96875 12 -7.40625 C 14.4375 -5.84375 17.125 -5.0625 20.0625 -5.0625 C 24.125 -5.0625 27.5 -6.609375 30.1875 -9.703125 C 32.875 -12.796875 34.21875 -17.4375 34.21875 -23.625 L 34.21875 -85.875 C 38.21875 -85.875 41.875 -84.890625 45.1875 -82.921875 C 48.5 -80.953125 51.140625 -78.328125 53.109375 -75.046875 C 55.078125 -71.765625 56.0625 -68.125 56.0625 -64.125 Z M 56.15625 -27.09375 "/></g></g></g><g fill="#ffffff" fill-opacity="1"><g transform="translate(86.339633, 238.499984)"><g><path d="M 91.125 -43.59375 C 91.125 -37.03125 89.875 -31.078125 87.375 -25.734375 C 84.875 -20.390625 81.515625 -15.796875 77.296875 -11.953125 C 73.078125 -8.109375 68.359375 -5.15625 63.140625 -3.09375 C 57.921875 -1.03125 52.59375 0 47.15625 0 C 41.71875 0 36.390625 -1.03125 31.171875 -3.09375 C 25.953125 -5.15625 21.234375 -8.109375 17.015625 -11.953125 C 12.796875 -15.796875 9.4375 -20.390625 6.9375 -25.734375 C 4.4375 -31.078125 3.1875 -37.03125 3.1875 -43.59375 C 3.1875 -50.15625 4.4375 -56.109375 6.9375 -61.453125 C 9.4375 -66.796875 12.796875 -71.390625 17.015625 -75.234375 C 21.234375 -79.078125 25.953125 -82.03125 31.171875 -84.09375 C 36.390625 -86.15625 41.71875 -87.1875 47.15625 -87.1875 C 52.59375 -87.1875 57.921875 -86.15625 63.140625 -84.09375 C 68.359375 -82.03125 73.078125 -79.078125 77.296875 -75.234375 C 81.515625 -71.390625 84.875 -66.796875 87.375 -61.453125 C 89.875 -56.109375 91.125 -50.15625 91.125 -43.59375 Z M 27.46875 -43.59375 C 27.46875 -29.15625 28.96875 -18.484375 31.96875 -11.578125 C 34.96875 -4.671875 40.03125 -1.21875 47.15625 -1.21875 C 54.34375 -1.21875 59.4375 -4.671875 62.4375 -11.578125 C 65.4375 -18.484375 66.9375 -29.15625 66.9375 -43.59375 C 66.9375 -57.96875 65.4375 -68.625 62.4375 -75.5625 C 59.4375 -82.5 54.34375 -85.96875 47.15625 -85.96875 C 40.03125 -85.96875 34.96875 -82.5 31.96875 -75.5625 C 28.96875 -68.625 27.46875 -57.96875 27.46875 -43.59375 Z M 27.46875 -43.59375 "/></g></g></g><g fill="#ffffff" fill-opacity="1"><g transform="translate(174.839627, 238.499984)"><g><path d="M 64.125 -84.75 L 43.6875 -59.90625 L 80.4375 0 L 65.4375 0 C 61.4375 0 57.734375 -1.015625 54.328125 -3.046875 C 50.921875 -5.078125 48.25 -7.8125 46.3125 -11.25 L 29.4375 -42 L 29.4375 0 C 25.4375 0 21.78125 -0.984375 18.46875 -2.953125 C 15.15625 -4.921875 12.515625 -7.546875 10.546875 -10.828125 C 8.578125 -14.109375 7.59375 -17.75 7.59375 -21.75 L 7.59375 -84.75 C 11.65625 -84.75 15.328125 -83.765625 18.609375 -81.796875 C 21.890625 -79.828125 24.515625 -77.203125 26.484375 -73.921875 C 28.453125 -70.640625 29.4375 -67 29.4375 -63 L 29.4375 -44.53125 L 62.4375 -84.75 Z M 64.125 -84.75 "/></g></g></g><g fill="#ffffff" fill-opacity="1"><g transform="translate(251.339622, 238.499984)"><g><path d="M 44.71875 -101.15625 C 44.71875 -98.15625 43.6875 -95.546875 41.625 -93.328125 C 39.5625 -91.109375 36.78125 -90 33.28125 -90 C 29.90625 -90 27.1875 -91.109375 25.125 -93.328125 C 23.0625 -95.546875 22.03125 -98.15625 22.03125 -101.15625 C 22.03125 -104.21875 23.0625 -106.84375 25.125 -109.03125 C 27.1875 -111.21875 29.90625 -112.3125 33.28125 -112.3125 C 36.78125 -112.3125 39.5625 -111.21875 41.625 -109.03125 C 43.6875 -106.84375 44.71875 -104.21875 44.71875 -101.15625 Z M 71.4375 -101.15625 C 71.4375 -98.15625 70.421875 -95.546875 68.390625 -93.328125 C 66.359375 -91.109375 63.59375 -90 60.09375 -90 C 56.71875 -90 54 -91.109375 51.9375 -93.328125 C 49.875 -95.546875 48.84375 -98.15625 48.84375 -101.15625 C 48.84375 -104.21875 49.875 -106.84375 51.9375 -109.03125 C 54 -111.21875 56.71875 -112.3125 60.09375 -112.3125 C 63.59375 -112.3125 66.359375 -111.21875 68.390625 -109.03125 C 70.421875 -106.84375 71.4375 -104.21875 71.4375 -101.15625 Z M 91.125 -43.59375 C 91.125 -37.03125 89.875 -31.078125 87.375 -25.734375 C 84.875 -20.390625 81.515625 -15.796875 77.296875 -11.953125 C 73.078125 -8.109375 68.359375 -5.15625 63.140625 -3.09375 C 57.921875 -1.03125 52.59375 0 47.15625 0 C 41.71875 0 36.390625 -1.03125 31.171875 -3.09375 C 25.953125 -5.15625 21.234375 -8.109375 17.015625 -11.953125 C 12.796875 -15.796875 9.4375 -20.390625 6.9375 -25.734375 C 4.4375 -31.078125 3.1875 -37.03125 3.1875 -43.59375 C 3.1875 -50.15625 4.4375 -56.109375 6.9375 -61.453125 C 9.4375 -66.796875 12.796875 -71.390625 17.015625 -75.234375 C 21.234375 -79.078125 25.953125 -82.03125 31.171875 -84.09375 C 36.390625 -86.15625 41.71875 -87.1875 47.15625 -87.1875 C 52.59375 -87.1875 57.921875 -86.15625 63.140625 -84.09375 C 68.359375 -82.03125 73.078125 -79.078125 77.296875 -75.234375 C 81.515625 -71.390625 84.875 -66.796875 87.375 -61.453125 C 89.875 -56.109375 91.125 -50.15625 91.125 -43.59375 Z M 27.46875 -43.59375 C 27.46875 -29.15625 28.96875 -18.484375 31.96875 -11.578125 C 34.96875 -4.671875 40.03125 -1.21875 47.15625 -1.21875 C 54.34375 -1.21875 59.4375 -4.671875 62.4375 -11.578125 C 65.4375 -18.484375 66.9375 -29.15625 66.9375 -43.59375 C 66.9375 -57.96875 65.4375 -68.625 62.4375 -75.5625 C 59.4375 -82.5 54.34375 -85.96875 47.15625 -85.96875 C 40.03125 -85.96875 34.96875 -82.5 31.96875 -75.5625 C 28.96875 -68.625 27.46875 -57.96875 27.46875 -43.59375 Z M 27.46875 -43.59375 "/></g></g></g></svg>