<svg xmlns="http://www.w3.org/2000/svg" xmlns:xlink="http://www.w3.org/1999/xlink" width="500" zoomAndPan="magnify" viewBox="0 0 375 374.999991" height="500" preserveAspectRatio="xMidYMid meet" version="1.0"><defs><clipPath id="239e153e3c"><path d="M 0 42.421875 L 375 42.421875 L 375 332.671875 L 0 332.671875 Z M 0 42.421875 " clip-rule="nonzero"/></clipPath></defs><g clip-path="url(#239e153e3c)"><path fill="#000000" d="M 138.28125 261.003906 L 224.84375 261.003906 L 224.84375 332.671875 L 186.832031 332.671875 L 186.832031 283.121094 C 186.832031 280.207031 184.472656 277.847656 181.5625 277.847656 C 178.652344 277.847656 176.292969 280.210938 176.292969 283.121094 L 176.292969 332.671875 L 138.28125 332.671875 Z M 309.484375 203.789062 L 267.816406 203.789062 C 266.421875 203.789062 265.082031 203.230469 264.09375 202.246094 C 261.839844 199.980469 258.847656 196.753906 255.394531 193.023438 C 244.480469 181.238281 218.941406 153.648438 209.1875 153.648438 L 201.863281 153.648438 L 186.125 180.914062 C 185.179688 182.542969 183.449219 183.550781 181.5625 183.550781 C 179.679688 183.546875 177.9375 182.542969 177.003906 180.914062 L 161.277344 153.648438 L 153.9375 153.648438 C 144.199219 153.648438 118.636719 181.253906 107.714844 193.039062 C 104.261719 196.769531 101.285156 199.992188 99.03125 202.246094 C 98.042969 203.230469 96.703125 203.789062 95.300781 203.789062 L 53.640625 203.789062 C 47.015625 203.789062 41.617188 209.179688 41.617188 215.808594 C 41.617188 222.453125 47.015625 227.859375 53.640625 227.859375 L 93.621094 227.859375 C 102.808594 227.859375 110.753906 224.554688 117.234375 218.054688 L 129.296875 206 C 130.796875 204.492188 133.066406 204.039062 135.03125 204.851562 C 137 205.667969 138.28125 207.589844 138.28125 209.722656 L 138.28125 250.472656 L 224.84375 250.472656 L 224.84375 209.722656 C 224.84375 207.589844 226.125 205.667969 228.09375 204.851562 C 230.0625 204.039062 232.328125 204.492188 233.828125 206 L 245.882812 218.046875 C 252.476562 224.644531 260.210938 227.859375 269.527344 227.859375 L 309.484375 227.859375 C 316.125 227.859375 321.523438 222.453125 321.523438 215.808594 C 321.523438 209.179688 316.125 203.789062 309.484375 203.789062 Z M 181.5625 143.109375 C 202.660156 143.109375 219.816406 125.945312 219.816406 104.839844 C 219.816406 83.738281 202.660156 66.574219 181.5625 66.574219 C 160.464844 66.574219 143.300781 83.738281 143.300781 104.839844 C 143.300781 125.945312 160.464844 143.109375 181.5625 143.109375 Z M 41.949219 153.964844 C 41.542969 152.34375 40.390625 151.019531 38.835938 150.382812 C 35.023438 148.824219 31.472656 146.773438 28.292969 144.292969 C 26.964844 143.257812 25.234375 142.917969 23.628906 143.371094 L 10.066406 147.195312 L 0.101562 129.972656 L 10.203125 120.132812 C 11.398438 118.964844 11.972656 117.296875 11.746094 115.632812 C 11.183594 111.597656 11.183594 107.496094 11.746094 103.453125 C 11.972656 101.789062 11.398438 100.113281 10.203125 98.945312 L 0.109375 89.136719 L 10.058594 71.914062 L 23.597656 75.738281 C 25.210938 76.191406 26.945312 75.851562 28.261719 74.824219 C 31.488281 72.3125 35.046875 70.261719 38.832031 68.730469 C 40.382812 68.097656 41.542969 66.765625 41.949219 65.144531 L 45.410156 51.503906 L 65.285156 51.503906 L 68.746094 65.144531 C 69.160156 66.765625 70.3125 68.089844 71.859375 68.726562 C 75.671875 70.285156 79.222656 72.335938 82.414062 74.816406 C 83.730469 75.851562 85.464844 76.191406 87.078125 75.738281 L 100.636719 71.914062 L 110.59375 89.136719 L 100.496094 98.976562 C 99.296875 100.144531 98.722656 101.808594 98.957031 103.476562 C 99.523438 107.511719 99.523438 111.613281 98.957031 115.652344 C 98.722656 117.320312 99.296875 118.992188 100.503906 120.164062 L 110.59375 129.972656 L 100.636719 147.195312 L 87.101562 143.371094 C 85.488281 142.917969 83.761719 143.25 82.433594 144.28125 C 79.207031 146.792969 75.652344 148.84375 71.875 150.375 C 70.320312 151.007812 69.160156 152.34375 68.746094 153.964844 L 65.285156 167.605469 L 45.410156 167.605469 Z M 55.351562 133.878906 C 68.753906 133.878906 79.652344 122.960938 79.652344 109.546875 C 79.652344 96.140625 68.753906 85.230469 55.351562 85.230469 C 41.949219 85.230469 31.042969 96.140625 31.042969 109.546875 C 31.042969 122.960938 41.949219 133.878906 55.351562 133.878906 Z M 374.898438 109.542969 C 374.898438 146.566406 344.789062 176.6875 307.773438 176.6875 C 270.773438 176.6875 240.671875 146.566406 240.671875 109.542969 C 240.671875 72.53125 270.777344 42.417969 307.773438 42.417969 C 344.789062 42.421875 374.898438 72.53125 374.898438 109.542969 Z M 364.113281 114.8125 L 356.214844 114.8125 C 353.304688 114.8125 350.945312 112.453125 350.945312 109.542969 C 350.945312 106.632812 353.304688 104.273438 356.214844 104.273438 L 364.109375 104.273438 C 363.03125 92.621094 358.410156 81.984375 351.324219 73.453125 L 345.75 79.027344 C 344.722656 80.058594 343.375 80.570312 342.027344 80.570312 C 340.679688 80.570312 339.332031 80.058594 338.300781 79.027344 C 336.246094 76.972656 336.246094 73.632812 338.300781 71.578125 L 343.875 66.003906 C 335.339844 58.914062 324.699219 54.292969 313.042969 53.210938 L 313.042969 61.109375 C 313.042969 64.019531 310.683594 66.378906 307.773438 66.378906 C 304.867188 66.378906 302.507812 64.019531 302.507812 61.109375 L 302.507812 53.210938 C 290.859375 54.292969 280.21875 58.914062 271.691406 66 L 277.253906 71.582031 C 279.308594 73.644531 279.300781 76.980469 277.242188 79.035156 C 276.214844 80.058594 274.871094 80.570312 273.523438 80.570312 C 272.171875 80.570312 270.824219 80.054688 269.792969 79.023438 L 264.242188 73.453125 C 257.160156 81.984375 252.542969 92.625 251.460938 104.273438 L 259.335938 104.273438 C 262.246094 104.273438 264.605469 106.632812 264.605469 109.542969 C 264.605469 112.453125 262.246094 114.8125 259.335938 114.8125 L 251.460938 114.8125 C 252.542969 126.472656 257.164062 137.117188 264.246094 145.652344 L 269.792969 140.085938 C 271.847656 138.023438 275.183594 138.019531 277.242188 140.074219 C 279.300781 142.128906 279.308594 145.464844 277.253906 147.523438 L 271.691406 153.105469 C 280.222656 160.191406 290.859375 164.816406 302.507812 165.898438 L 302.507812 157.996094 C 302.507812 155.085938 304.867188 152.730469 307.773438 152.730469 C 310.683594 152.730469 313.042969 155.085938 313.042969 157.996094 L 313.042969 165.898438 C 324.695312 164.816406 335.339844 160.191406 343.875 153.101562 L 338.300781 147.53125 C 336.246094 145.472656 336.246094 142.136719 338.300781 140.078125 C 340.359375 138.019531 343.691406 138.019531 345.75 140.078125 L 351.320312 145.652344 C 358.40625 137.117188 363.03125 126.472656 364.113281 114.8125 Z M 313.042969 107.304688 L 313.042969 82.441406 C 313.042969 79.53125 310.683594 77.175781 307.773438 77.175781 C 304.867188 77.175781 302.507812 79.53125 302.507812 82.441406 L 302.507812 109.542969 C 302.507812 110.976562 303.089844 112.34375 304.121094 113.335938 L 326.125 134.5625 C 327.148438 135.546875 328.464844 136.035156 329.78125 136.035156 C 331.160156 136.035156 332.539062 135.496094 333.574219 134.425781 C 335.59375 132.328125 335.53125 128.996094 333.4375 126.972656 Z M 64.742188 291.679688 L 72.660156 291.679688 C 75.566406 291.679688 77.921875 294.039062 77.921875 296.949219 L 77.921875 332.671875 L 90.167969 332.671875 L 90.167969 296.949219 C 90.167969 294.039062 92.527344 291.679688 95.429688 291.679688 L 103.351562 291.679688 L 84.046875 266.3125 Z M 259.789062 291.679688 L 267.710938 291.679688 C 270.621094 291.679688 272.980469 294.039062 272.980469 296.949219 L 272.980469 332.671875 L 285.199219 332.671875 L 285.199219 296.949219 C 285.199219 294.039062 287.558594 291.679688 290.46875 291.679688 L 298.382812 291.679688 L 279.078125 266.320312 Z M 259.789062 291.679688 " fill-opacity="1" fill-rule="nonzero"/></g></svg>