<svg xmlns="http://www.w3.org/2000/svg" xmlns:xlink="http://www.w3.org/1999/xlink" width="500" zoomAndPan="magnify" viewBox="0 0 375 374.999991" height="500" preserveAspectRatio="xMidYMid meet" version="1.0"><defs><clipPath id="2003134d0b"><path d="M 27.890625 2 L 346 2 L 346 367 L 27.890625 367 Z M 27.890625 2 " clip-rule="nonzero"/></clipPath></defs><g clip-path="url(#2003134d0b)"><path fill="#000000" d="M 162.542969 2.417969 C 158.175781 2.511719 154.675781 6.101562 154.738281 10.464844 L 154.738281 57.992188 C 154.707031 60.835938 156.195312 63.5 158.671875 64.953125 C 161.148438 66.375 164.183594 66.375 166.664062 64.953125 C 169.140625 63.5 170.625 60.835938 170.59375 57.992188 L 170.59375 10.464844 C 170.625 8.328125 169.789062 6.257812 168.273438 4.738281 C 166.753906 3.222656 164.679688 2.386719 162.542969 2.417969 Z M 91.222656 26.246094 C 88 26.246094 85.121094 28.195312 83.882812 31.164062 C 82.675781 34.164062 83.386719 37.570312 85.710938 39.828125 L 117.421875 71.511719 C 119.402344 73.585938 122.375 74.421875 125.132812 73.679688 C 127.921875 72.964844 130.089844 70.800781 130.800781 68.015625 C 131.542969 65.261719 130.707031 62.292969 128.632812 60.3125 L 96.921875 28.628906 C 95.433594 27.078125 93.390625 26.246094 91.222656 26.246094 Z M 233.863281 26.246094 C 231.789062 26.277344 229.839844 27.140625 228.414062 28.628906 L 196.703125 60.3125 C 194.628906 62.292969 193.792969 65.261719 194.535156 68.015625 C 195.246094 70.800781 197.414062 72.964844 200.203125 73.679688 C 202.957031 74.421875 205.929688 73.585938 207.914062 71.511719 L 239.625 39.828125 C 241.980469 37.539062 242.660156 34.074219 241.390625 31.070312 C 240.121094 28.039062 237.148438 26.121094 233.863281 26.246094 Z M 314.664062 42.148438 C 308.933594 42.148438 303.171875 44.34375 298.804688 48.707031 L 146.8125 200.570312 C 146.8125 200.570312 123.617188 156.972656 112.003906 145.339844 C 91.71875 125.070312 52.480469 115.171875 42.136719 125.503906 L 27.890625 139.707031 L 72.734375 184.511719 L 107.171875 287.703125 L 169.417969 349.894531 C 191.964844 372.417969 228.507812 372.417969 251.050781 349.894531 L 338.445312 262.578125 C 347.210938 253.820312 347.210938 239.648438 338.445312 230.890625 C 329.683594 222.136719 315.5 222.136719 306.734375 230.890625 L 314.664062 222.972656 C 323.425781 214.214844 323.425781 200.042969 314.664062 191.289062 C 305.898438 182.53125 291.714844 182.53125 282.949219 191.289062 L 290.878906 183.367188 C 299.644531 174.609375 299.644531 160.4375 290.878906 151.683594 C 282.113281 142.925781 267.929688 142.925781 259.167969 151.683594 L 330.519531 80.390625 C 339.28125 71.636719 339.28125 57.464844 330.519531 48.707031 C 326.152344 44.34375 320.390625 42.148438 314.664062 42.148438 Z M 314.664062 42.148438 " fill-opacity="1" fill-rule="nonzero"/></g></svg>